<svg width="0" height="0" style="position:absolute"><symbol id="email" viewBox="0 0 200 200" xmlns="http://www.w3.org/2000/svg"><style>.ast0{fill:#d0c5b8}</style><path class="ast0" d="M180.9 69.4c-17.4 12.1-34.9 24.1-52.2 36.3-7.3 5-19.5 15.3-28.6 15.3h-.2c-9 0-21.3-10.3-28.6-15.3C54 93.5 36.5 81.4 19.2 69.4 11.3 64 0 51.4 0 41.2c0-10.9 5.9-20.3 17.9-20.3h164.3c9.7 0 17.9 8 17.9 17.9-.1 12.5-9.4 23.8-19.2 30.6zm19.1 90.8c0 9.8-8 17.9-17.9 17.9H17.9C8 178.1 0 170 0 160.2V71.6c3.3 3.7 7.1 6.9 11.3 9.7 18.5 12.6 37.3 25.2 55.5 38.5 9.4 6.9 21 15.4 33.1 15.4h.2c12.2 0 23.8-8.5 33.1-15.4 18.2-13.2 36.9-25.9 55.6-38.5 4-2.8 7.8-6 11.2-9.7v88.6z"/></symbol><symbol id="linkedin" viewBox="0 0 200 200" xmlns="http://www.w3.org/2000/svg"><style>.bst0{fill:#d0c5b8}</style><path class="bst0" d="M200 162.5c0 20.7-16.8 37.5-37.5 37.5h-125C16.8 200 0 183.2 0 162.5v-125C0 16.7 16.8 0 37.5 0h125C183.2 0 200 16.7 200 37.5v125zM46.1 33.5C35.8 33.5 29 40.3 29 49.1c0 8.6 6.5 15.6 16.7 15.6h.1c10.5 0 17.1-7 17.1-15.6-.1-8.8-6.5-15.6-16.8-15.6zm14.8 133.9V77h-30v90.4h30zm108.2 0v-51.8c0-27.7-14.8-40.6-34.6-40.6-16.1 0-23.3 9-27.2 15.2h.3V77H77.5s.4 8.5 0 90.4h30.1v-50.5c0-2.6.1-5.3.9-7.3 2.2-5.3 7.2-10.9 15.5-10.9 10.8 0 15.1 8.2 15.1 20.4v48.3h30z"/></symbol></svg>