<?xml version="1.0" encoding="utf-8"?>
<!-- Generator: Adobe Illustrator 17.1.0, SVG Export Plug-In . SVG Version: 6.00 Build 0)  -->
<!DOCTYPE svg PUBLIC "-//W3C//DTD SVG 1.1//EN" "http://www.w3.org/Graphics/SVG/1.1/DTD/svg11.dtd">
<svg version="1.1" id="Layer_1" xmlns="http://www.w3.org/2000/svg" xmlns:xlink="http://www.w3.org/1999/xlink" x="0px" y="0px"
	 viewBox="0 0 200 200" style="enable-background:new 0 0 200 200;" xml:space="preserve">
<style type="text/css">
	.st0{fill:#D0C5B8;}
</style>
<g>
	<path class="st0" d="M180.9,69.4c-17.4,12.1-34.9,24.1-52.2,36.3c-7.3,5-19.5,15.3-28.6,15.3H100h-0.1c-9,0-21.3-10.3-28.6-15.3
		C54,93.5,36.5,81.4,19.2,69.4C11.3,64,0,51.4,0,41.2c0-10.9,5.9-20.3,17.9-20.3h164.3c9.7,0,17.9,8,17.9,17.9
		C200,51.3,190.7,62.6,180.9,69.4z M200,160.2c0,9.8-8,17.9-17.9,17.9H17.9C8,178.1,0,170,0,160.2V71.6c3.3,3.7,7.1,6.9,11.3,9.7
		c18.5,12.6,37.3,25.2,55.5,38.5c9.4,6.9,21,15.4,33.1,15.4h0.1h0.1c12.2,0,23.8-8.5,33.1-15.4c18.2-13.2,36.9-25.9,55.6-38.5
		c4-2.8,7.8-6,11.2-9.7V160.2z"/>
</g>
</svg>
