<?xml version="1.0" encoding="utf-8"?>
<!-- Generator: Adobe Illustrator 17.1.0, SVG Export Plug-In . SVG Version: 6.00 Build 0)  -->
<!DOCTYPE svg PUBLIC "-//W3C//DTD SVG 1.1//EN" "http://www.w3.org/Graphics/SVG/1.1/DTD/svg11.dtd">
<svg version="1.1" id="Layer_1" xmlns="http://www.w3.org/2000/svg" xmlns:xlink="http://www.w3.org/1999/xlink" x="0px" y="0px"
	 viewBox="0 0 200 200" style="enable-background:new 0 0 200 200;" xml:space="preserve">
<style type="text/css">
	.st0{fill:#D0C5B8;}
</style>
<g>
	<path class="st0" d="M200,162.5c0,20.7-16.8,37.5-37.5,37.5h-125C16.8,200,0,183.2,0,162.5v-125C0,16.7,16.8,0,37.5,0h125
		C183.2,0,200,16.7,200,37.5V162.5z M46.1,33.5c-10.3,0-17.1,6.8-17.1,15.6c0,8.6,6.5,15.6,16.7,15.6h0.1c10.5,0,17.1-7,17.1-15.6
		C62.8,40.3,56.4,33.5,46.1,33.5z M60.9,167.4V77H30.9v90.4H60.9z M169.1,167.4v-51.8c0-27.7-14.8-40.6-34.6-40.6
		c-16.1,0-23.3,9-27.2,15.2h0.3V77H77.5c0,0,0.4,8.5,0,90.4h30.1v-50.5c0-2.6,0.1-5.3,0.9-7.3c2.2-5.3,7.2-10.9,15.5-10.9
		c10.8,0,15.1,8.2,15.1,20.4v48.3H169.1z"/>
</g>
</svg>
